<svg id="Слой_1" data-name="Слой 1" xmlns="http://www.w3.org/2000/svg" viewBox="0 0 283.69 50"><title>megafon</title><path d="M32.48,24.78c.54,0,.7-.16.7-.69,0-3.3,0-6.6,0-9.9q0-6.76.08-13.54c0-.49-.14-.63-.63-.62a23,23,0,0,0-5.78.82,24.77,24.77,0,0,0-13.43,9A24.41,24.41,0,0,0,8.29,23.65c0,.35-.09.69-.13,1v.78c0,.23.09.46.12.7a42.53,42.53,0,0,0,.54,4.25A24.28,24.28,0,0,0,23.71,48.12c1.32.57,2.73.92,4.24,1.42V27.15a2.33,2.33,0,0,1,2.37-2.38C31,24.76,31.76,24.74,32.48,24.78Zm-4-4.14a3.18,3.18,0,0,1-3.11-3.16,3.17,3.17,0,0,1,6.34.05A3.25,3.25,0,0,1,28.44,20.64Z" transform="translate(-8.16)"/><path d="M291.24,13.67c-1.62,0-3.25,0-4.87,0-.58,0-.71.17-.7.72,0,2.72,0,5.45,0,8.18,0,.48-.15.63-.63.63q-5.82,0-11.63,0c-.47,0-.59-.15-.59-.6,0-2.77,0-5.53,0-8.29,0-.47-.11-.65-.61-.64q-2.58,0-5.16,0c-.47,0-.58.15-.58.6q0,11.91,0,23.83c0,.44.11.61.58.6,1.72,0,3.44,0,5.15,0,.51,0,.62-.16.62-.63,0-3,0-5.94,0-8.9,0-.5.12-.66.64-.66q5.76,0,11.52,0c.53,0,.69.15.69.69,0,2.72,0,5.45,0,8.18,0,1.31,0,1.3,1.3,1.31l4.86,0V13.63C291.64,13.64,291.44,13.67,291.24,13.67Z" transform="translate(-8.16)"/><path d="M41,1.11C39.62.62,38.12.38,36.53,0V25.15a6.54,6.54,0,0,1,0,.77A2.15,2.15,0,0,1,34.16,28H31.89c-.77,0-.77,0-.77.75V49.14a2.43,2.43,0,0,1,0,.27c0,.29.09.41.41.45a21.25,21.25,0,0,0,7-.37A25,25,0,0,0,58,20.15C56,10.65,50.2,4.32,41,1.11ZM35.88,38.79a3.2,3.2,0,0,1-3.17-3.09,3.23,3.23,0,0,1,3.16-3.2A3.19,3.19,0,0,1,39,35.8,3,3,0,0,1,35.88,38.79Zm7.36,0a3.11,3.11,0,0,1-3.14-3.1,3.2,3.2,0,0,1,3.16-3.18,3.27,3.27,0,0,1,3.16,3.16A3.12,3.12,0,0,1,43.24,38.78Zm7.46,0a3.11,3.11,0,0,1-3.14-3.16,3.15,3.15,0,1,1,6.3.08A3.12,3.12,0,0,1,50.7,38.78Z" transform="translate(-8.16)"/><path d="M111,13.67A5.65,5.65,0,0,0,102,10.43,8.73,8.73,0,0,0,99.47,14q-3.85,9-7.72,18c-.12.28-.26.55-.44.93-.14-.27-.25-.44-.32-.62-2-4.68-4-9.36-6.08-14-.84-1.94-1.65-3.9-2.62-5.78A5.74,5.74,0,0,0,77.86,9.2c-3.31-.48-6.38,1.41-6.45,5.19-.15,7.88-.06,15.77-.08,23.66,0,.41.15.53.55.53,1.57,0,3.14,0,4.71,0,.8,0,.8,0,.8-.82V17c0-.25,0-.49,0-.73l.15,0c.1.21.21.41.3.62,2.37,5.35,4.73,10.7,7.12,16a26.46,26.46,0,0,0,1.92,3.84,5.07,5.07,0,0,0,5.45,2.21,5.47,5.47,0,0,0,4.12-3.56c2.32-5.21,4.62-10.44,6.93-15.65.52-1.16,1-2.32,1.55-3.48l.19,0v.63q0,10.63,0,21.28c0,.51.13.67.65.67,1.58,0,3.17,0,4.76,0,.54,0,.73-.13.73-.71,0-7.48,0-15,0-22.44A8.64,8.64,0,0,0,111,13.67Z" transform="translate(-8.16)"/><path d="M222.88,11.05a14.16,14.16,0,0,0-5.58-1.23c-2.53-.07-5.06,0-7.59,0h0c-2.27,0-4.54,0-6.81,0a23.11,23.11,0,0,0-4,.45,9.56,9.56,0,0,0-7.71,7,19.26,19.26,0,0,0-.1,10.3,9.12,9.12,0,0,0,5.1,6.39A15.23,15.23,0,0,0,202,35.24c1.36.07,2.73,0,4.09,0,.45,0,.64.16.63.61,0,.72,0,1.44,0,2.16,0,.36.09.53.5.53,1.7,0,3.4,0,5.09,0,.38,0,.48-.15.47-.5,0-.62,0-1.25,0-1.88,0-.91,0-.91.9-.91a31.74,31.74,0,0,0,6.88-.47c3.86-.86,6.58-3,7.68-6.88a19,19,0,0,0,0-10.45A9.55,9.55,0,0,0,222.88,11.05ZM205.94,30.27a25.14,25.14,0,0,1-5.12-.33,5.43,5.43,0,0,1-4.08-4.7,15.33,15.33,0,0,1,.21-5.92,5.57,5.57,0,0,1,5.71-4.51h3.27c.71,0,.72,0,.72.76v7c0,2.32,0,4.64,0,7C206.67,30.1,206.51,30.29,205.94,30.27Zm16.84-5.2a6.47,6.47,0,0,1-.32,1.5c-1,2.51-2.72,3.73-5.66,3.9-1.08.07-2.17.05-3.26.09-.47,0-.65-.13-.65-.63q0-7.14,0-14.3c0-.5.17-.65.64-.62s1.22,0,1.83,0V15a25.44,25.44,0,0,1,3,.25c2.38.49,3.64,2.14,4.23,4.39A14.64,14.64,0,0,1,222.78,25.07Z" transform="translate(-8.16)"/><path d="M254.67,14.14a23.89,23.89,0,0,0-6.63-.62,26.44,26.44,0,0,0-6.33.48c-4.1,1-6.75,3.37-7.7,7.53A22,22,0,0,0,233.8,30a9.75,9.75,0,0,0,8.25,8.63,28.3,28.3,0,0,0,7,.4,28.93,28.93,0,0,0,4.82-.55c4.28-.9,7.06-3.43,8-7.78a22.27,22.27,0,0,0,.14-8.18C261.3,18.19,259,15.3,254.67,14.14Zm1.15,15.33a5.14,5.14,0,0,1-4.22,4.1,19.05,19.05,0,0,1-7.41,0,5.32,5.32,0,0,1-4.49-4.51,13.6,13.6,0,0,1,.08-6.12,5.31,5.31,0,0,1,5-4.2c1-.1,2-.12,3.21-.19.92.08,2.07.09,3.19.27a5.42,5.42,0,0,1,4.76,4.69A13.54,13.54,0,0,1,255.82,29.47Z" transform="translate(-8.16)"/><path d="M137.21,33.23c-4.64,0-9.27,0-13.91,0-.31,0-.63.18-.93.15a1,1,0,0,1-.63-.38,1.33,1.33,0,0,1-.11-.7c0-1.07,0-2.13,0-3.2,0-.91,0-.91.92-.91,4.71,0,9.42,0,14.13,0,.51,0,.67-.15.66-.66,0-1.14,0-2.28,0-3.43,0-.84,0-.84-.82-.84-4.73,0-9.46,0-14.18,0-.54,0-.72-.17-.7-.7,0-.92,0-1.84,0-2.76s.22-1.17,1.17-1.17c4.82,0,9.64,0,14.46,0,.47,0,.64-.12.63-.62,0-1.29,0-2.58,0-3.87,0-.54-.16-.69-.69-.69-3,0-6.09,0-9.14,0v0c-3,0-6.06,0-9.09,0a3.4,3.4,0,0,0-3.29,3.37c0,1.22,0,2.43,0,3.65,0,4.79,0,9.58,0,14.37a3.56,3.56,0,0,0,3.42,3.41c6.08,0,12.16,0,18.23,0,.4,0,.55-.12.55-.54,0-1.3,0-2.61,0-3.92C137.91,33.37,137.74,33.23,137.21,33.23Z" transform="translate(-8.16)"/><path d="M183.9,23.44c-1.13-2.39-2.22-4.81-3.42-7.18a5.24,5.24,0,0,0-5.12-3.12,5.14,5.14,0,0,0-4.72,3.14c-3.38,7.34-6.71,14.7-10.06,22a3.92,3.92,0,0,0-.15.45c2,0,4,0,5.94,0a.72.72,0,0,0,.78-.52c.58-1.43,1.2-2.85,1.78-4.28a.73.73,0,0,1,.78-.53q6,0,12.07,0a.76.76,0,0,1,.81.56c.59,1.43,1.21,2.84,1.79,4.27a.68.68,0,0,0,.74.5c1.81,0,3.62,0,5.42,0,.16,0,.32,0,.56-.05-.12-.27-.2-.46-.3-.65ZM171,28.54c.07-.23.1-.4.17-.57,1.16-2.8,2.33-5.6,3.49-8.39a1.85,1.85,0,0,1,.23-.44.57.57,0,0,1,1,.13c1.24,3,2.46,5.94,3.69,8.91a1.58,1.58,0,0,1,.06.36Z" transform="translate(-8.16)"/><path d="M164.7,18.15c0-1.29,0-2.58,0-3.87,0-.49-.14-.62-.62-.62-6,0-12,0-18,0a4.11,4.11,0,0,0-1.5.31,3.55,3.55,0,0,0-2.22,3.55c0,3.38,0,6.75,0,10.12V38c0,.35,0,.59.48.59,1.62,0,3.25,0,4.87.11.55,0,.68-.17.67-.69,0-2.81,0-5.63,0-8.45V20c0-1,.25-1.22,1.25-1.23h.55c4.6,0,9.2,0,13.79,0C164.52,18.82,164.72,18.71,164.7,18.15Z" transform="translate(-8.16)"/></svg>