<svg id="Слой_1" data-name="Слой 1" xmlns="http://www.w3.org/2000/svg" viewBox="0 0 196.67 50"><title>mts</title><path d="M90.05,2.67c-2.36-.08-3.34.61-3.9,3-1.83,7.69-4,15.31-6,23h-.5c-.2-.63-.42-1.26-.59-1.89-1.9-7.25-3.85-14.49-5.65-21.77C73,3.22,72.3,2.63,70.53,2.69c-4,.13-7.92,0-11.88,0H50V47.21H62.81V12.73A4.37,4.37,0,0,1,64,15c2.59,10,5.21,19.88,7.72,29.85.46,1.84,1.19,2.64,3.22,2.53a100.27,100.27,0,0,1,10.11,0c1.78.08,2.47-.53,2.9-2.24,2.54-10,5.21-20,7.83-30.08.22-.81.45-1.61.67-2.42l.61.12V47.15h12.77V2.86c-1,0-2-.13-2.85-.13C101.34,2.72,95.69,2.85,90.05,2.67Z" transform="translate(-1.66)"/><path d="M10.58,5.37A40.61,40.61,0,0,0,1.66,29.85c.08,1.43.09,2.61.22,3.78C3,43.76,9.76,50.09,19.32,50c8.93-.08,15.53-6,16.75-15.38,1.43-11-1.84-20.86-8.7-29.42C21.75-1.82,16.25-1.7,10.58,5.37Z" transform="translate(-1.66)"/><path d="M180.67,35.39a35.34,35.34,0,0,1-8.22-1c-4.51-1.2-6.78-4.52-6.85-9.15-.09-5.81,3.26-9.8,9.55-10.26,6.7-.5,13.46-.31,20.19-.43,1,0,1.94-.1,2.87-.16V2.73c-6.61,0-13,0-19.39,0a41.52,41.52,0,0,0-5.79.4,35.73,35.73,0,0,0-6.14,1.41c-6.29,2.14-11,6-13.35,12.47-4.78,13.31,2.13,26.05,16.13,29.24,9.29,2.11,18.78.88,28.19.94.13,0,.26-.19.48-.36V35.44C192.26,35.44,186.46,35.53,180.67,35.39Z" transform="translate(-1.66)"/><path d="M148.38,2.67c-10.7.12-21.4.05-32.1.07-.81,0-1.61.11-2.48.18V14.58h8.85c3.34,0,3.34,0,3.34,3.24Q126,31,126,44.1c0,1,.09,2,.14,3.09h12.78V14.58c3.44,0,6.54-.09,9.64,0,1.92.08,2.77-.43,2.61-2.51a42.38,42.38,0,0,1,0-6.57C151.35,3.35,150.65,2.65,148.38,2.67Z" transform="translate(-1.66)"/></svg>