<svg id="Слой_1" data-name="Слой 1" xmlns="http://www.w3.org/2000/svg" viewBox="0 0 185.14 50"><title>netflix</title><path d="M25,28.18a1.06,1.06,0,0,1-.25-.41Q19.89,14.09,15,.41a.51.51,0,0,0-.59-.4c-2.33,0-4.65,0-7,0V50l.33,0,6.15-.85,1.48-.19V21.79a.93.93,0,0,1,.21.39l2.55,7.47q3,8.91,6.08,17.81c.09.26.19.34.48.31,1.42-.17,2.85-.3,4.27-.47l3.88-.48V0H25Z" transform="translate(-7.43)"/><path d="M192.41,49.55q-4.8-12.69-9.61-25.39a.93.93,0,0,1,0-.75l9.6-23c.05-.12.09-.24.15-.4h-8.11a.5.5,0,0,0-.55.36q-2.53,6.15-5.11,12.29l-.21.49-.18-.4c-1.61-4.13-3.23-8.26-4.83-12.39a.47.47,0,0,0-.52-.35h-8a4.11,4.11,0,0,0,.14.42L174,23.13a.86.86,0,0,1,0,.72Q169.14,34.91,164.28,46c-.06.13-.1.26-.17.44,1,.11,2,.21,2.94.33,1.67.2,3.33.39,5,.62.31,0,.46,0,.59-.31,1.39-3.26,2.8-6.52,4.2-9.78l1.35-3.14c.09.19.14.32.2.45l5.31,13.68a.49.49,0,0,0,.44.38l7.27,1.2c.37.06.74.09,1.17.15C192.5,49.8,192.45,49.68,192.41,49.55Z" transform="translate(-7.43)"/><path d="M40.52,46.14l21.56-1.7V36.9l-13.78.86V26.07L58.69,26V18.21c-.16,0-.27,0-.39,0-3.21,0-6.42.08-9.62.14-.32,0-.41-.07-.41-.4q0-4.87,0-9.75c0-.13,0-.25,0-.41H62.08V0H40.52Z" transform="translate(-7.43)"/><path d="M96.28,43.32h7.13c.48,0,.48,0,.48-.49V26.1c0-.59,0-.53.52-.53h10.14a2.2,2.2,0,0,0,0-.27c0-2.39,0-4.79,0-7.19,0-.29-.13-.32-.37-.32h-10.3v-10H118V0H96.28Z" transform="translate(-7.43)"/><path d="M67.21,7.82h8.08v36h7.8v-36h8.06V0H67.21Z" transform="translate(-7.43)"/><path d="M130.75,0H123V43.76l21,1.05V37.17l-13.29-.71Z" transform="translate(-7.43)"/><path d="M150.69.54V44.89a1.61,1.61,0,0,1,0,.22c0,.26.09.32.33.33,1,.05,2,.11,3.07.19,1.39.1,2.78.22,4.2.34V0h-7.6Z" transform="translate(-7.43)"/></svg>