<svg id="Слой_1" data-name="Слой 1" xmlns="http://www.w3.org/2000/svg" viewBox="0 0 185.14 50"><title>sber</title><polygon points="146.8 15.03 153.65 9.98 130.72 9.98 130.72 40.31 153.65 40.31 153.65 35.26 137.26 35.26 137.26 27.5 151.24 27.5 151.24 22.45 137.26 22.45 137.26 15.03 146.8 15.03"/><path d="M125.58,15l6.85-5h-26.1V40.31H120c7.66,0,12.06-3.47,12.06-9.53,0-5.79-4-9-11.22-9h-8V15Zm-5.89,11.82c4.16,0,6.09,1.41,6.09,4.21s-2,4.2-6.09,4.2h-6.82V26.85Z" transform="translate(-7.43)"/><path d="M179.66,10H167.17V40.31h6.54V31.72h5.95c8,0,12.91-4.19,12.91-10.88S187.62,10,179.66,10Zm-.15,16.69h-5.8V15h5.8c4.2,0,6.5,2.07,6.5,5.82S183.7,26.67,179.51,26.67Z" transform="translate(-7.43)"/><path d="M95.09,33.75a11.72,11.72,0,0,1-5.65,1.41,9.76,9.76,0,0,1-10.18-10c0-5.81,4.28-10,10.18-10a9.91,9.91,0,0,1,6,1.86l4.7-3.46-.31-.27A15.73,15.73,0,0,0,89.19,9.6a16.74,16.74,0,0,0-11.61,4.31A15.07,15.07,0,0,0,73,25a15.58,15.58,0,0,0,4.58,11.25,16.38,16.38,0,0,0,11.58,4.49,15.63,15.63,0,0,0,11.63-4.64L96.54,33Z" transform="translate(-7.43)"/><path d="M57,20.52l-5.38,4V25A19.27,19.27,0,1,1,43.26,9.13l4.87-3.58A25,25,0,1,0,57.43,25h0A25,25,0,0,0,57,20.52Z" transform="translate(-7.43)"/><path d="M22.91,18.33v7.18l9.51,6L55.2,14.69a24.62,24.62,0,0,0-3-5L32.42,24.29Z" transform="translate(-7.43)"/></svg>