<svg id="Слой_1" data-name="Слой 1" xmlns="http://www.w3.org/2000/svg" viewBox="0 0 154.92 50"><title>visa</title><path d="M176.44,44.5l-4.62-22.24Q169.71,12.12,167.6,2c-.23-1.11-.22-1.11-1.31-1.11-3.19,0-6.37,0-9.55,0a5.54,5.54,0,0,0-5.31,3.57c-1,2.38-2,4.8-3,7.2q-7.32,17.48-14.63,34.95c-.36.86-.7,1.72-1,2.58a.87.87,0,0,0,.23.08h12.2c.48,0,.6-.25.74-.62.7-2,1.44-3.91,2.11-5.88a.92.92,0,0,1,1.06-.73c4.88,0,9.75,0,14.63,0,.25,0,.51,0,.79,0,.45,2.14.9,4.22,1.31,6.31.13.64.37.9,1.07.88,2.24,0,4.49,0,6.73,0h3.85ZM151.87,32.18c2.22-6.11,4.39-12.11,6.56-18.1h.23c1.25,6,2.51,12,3.78,18.09Z" transform="translate(-22.54 0)"/><path d="M81.16.89h-.85c-3.75,0-7.5,0-11.26,0a1.06,1.06,0,0,0-1.19.8Q62,16.69,56,31.68c-.27.69-.56,1.37-.93,2.28-.14-.51-.23-.78-.28-1.06-.33-1.79-.65-3.58-1-5.37q-2-10.66-4-21.34A5.92,5.92,0,0,0,43.53.89H23.82c-1.14,0-1.14,0-1.28,1.29l2.13.52a46.65,46.65,0,0,1,10.2,3.65,5,5,0,0,1,2.58,3.08q.66,2.38,1.28,4.75,4.44,17.2,8.86,34.41c.15.59.43.71,1,.7,3.81,0,7.61,0,11.42,0a1.19,1.19,0,0,0,1.32-.87Q70.78,25.69,80.32,3C80.6,2.31,80.85,1.64,81.16.89Z" transform="translate(-22.54 0)"/><path d="M127.53,23.35c-1.94-1.34-4.08-2.4-6.09-3.64a38.13,38.13,0,0,1-4.75-3.12c-1.62-1.35-1.46-3.32.12-4.75a6.87,6.87,0,0,1,3.89-1.65,22.94,22.94,0,0,1,11.41,1.59l1.18.48c.68-3.2,1.33-6.31,2-9.41.12-.55,0-.76-.53-1A31.88,31.88,0,0,0,116.24,1c-4.71,1.17-8.82,3.43-11.43,7.71-2.33,3.84-3,8-1,12.16a14.4,14.4,0,0,0,5.91,6.09c2,1.2,4,2.14,6,3.32a18.07,18.07,0,0,1,3.54,2.65,3.5,3.5,0,0,1-.18,4.94,6.63,6.63,0,0,1-3.56,1.84,20.78,20.78,0,0,1-9.82-.41c-2-.55-3.92-1.36-5.94-2.08,0,.15-.09.32-.13.49-.61,2.83-1.21,5.65-1.82,8.48-.31,1.41-.33,1.42,1.07,1.89a39.79,39.79,0,0,0,14,1.95,27.52,27.52,0,0,0,9.9-2c4.23-1.75,7.64-4.45,9.29-8.85C134.36,33,133.24,27.31,127.53,23.35Z" transform="translate(-22.54 0)"/><path d="M99.09,1a3.61,3.61,0,0,0-.45-.07c-3.78,0-7.56,0-11.34,0-.46,0-.6.17-.69.61Q85,9.29,83.28,17.07q-3.23,15-6.44,30.08c-.15.67-.27,1.35-.4,2.05a2.72,2.72,0,0,0,.4.08H88.26c.45,0,.58-.22.65-.59l2.82-13.13L98.24,5Z" transform="translate(-22.54 0)"/></svg>