<svg id="Слой_1" data-name="Слой 1" xmlns="http://www.w3.org/2000/svg" viewBox="0 0 258.59 50"><title>facebook</title><path d="M170.66,19.07a12.72,12.72,0,0,0-9.84-2.29,9.24,9.24,0,0,0-7,4.72,2.21,2.21,0,0,1-.25.23c0-.32,0-.55,0-.78V1a1.37,1.37,0,0,0,0-.5c-.05-.13-.23-.31-.34-.3-1.15.09-2.3.2-3.46.31-1.68.16-3.37.33-5.06.47-.76.06-.77,0-.77.81V48.81c0,.1,0,.2,0,.3,0,.36.12.47.47.47,2.72,0,5.45,0,8.18,0,.38,0,.48-.14.48-.51,0-1.24,0-2.49,0-3.73,0-.17,0-.33,0-.62a2.61,2.61,0,0,1,.23.33,9.16,9.16,0,0,0,5.21,4.51l1.22.44h6.36a3.66,3.66,0,0,1,.46-.18,11.34,11.34,0,0,0,4.88-2.63,14.63,14.63,0,0,0,4.4-9.48c.21-1.87.18-3.76.21-5.64a20.24,20.24,0,0,0-.7-5.58A13.09,13.09,0,0,0,170.66,19.07Zm-4.34,15.87a16.49,16.49,0,0,1-.55,3.56,5.52,5.52,0,0,1-5.57,4.17,6.73,6.73,0,0,1-3-.46,5.65,5.65,0,0,1-3.36-4.42c-.27-1.43-.3-2.9-.46-4.53.17-1.41.23-3,.56-4.53a5.48,5.48,0,0,1,5.74-4.51,8.87,8.87,0,0,1,2.62.37A5.62,5.62,0,0,1,166,29,19.62,19.62,0,0,1,166.32,34.94Z" transform="translate(-20.71)"/><path d="M279,20.12a2.89,2.89,0,0,1,.29-.32V17.27c-.21,0-.43,0-.65,0-2.53,0-5.05,0-7.58,0a.87.87,0,0,0-.84.47q-4.49,7.2-9,14.38c-.11.17-.23.34-.35.5l-.12,0V.9a1.11,1.11,0,0,0,0-.45c-.06-.13-.23-.3-.34-.29-1.17.08-2.34.2-3.51.31-1.76.16-3.51.33-5.27.47-.42,0-.58.16-.58.6q0,23.75,0,47.47c0,.46.15.56.58.56,2.83,0,5.66,0,8.49,0,.65,0,.65,0,.65-.67V34.39c0-.18,0-.37,0-.56a1.43,1.43,0,0,1,.42.44q4.73,7.44,9.44,14.87a.78.78,0,0,0,.77.43c1.09,0,2.19,0,3.28,0l4.59,0V46.46a3.16,3.16,0,0,1-.35-.39L271,33.78a.84.84,0,0,1,0-1.07Q275,26.42,279,20.12Z" transform="translate(-20.71)"/><path d="M78,43V18c0-.66,0-.66-.66-.66-2.68,0-5.36,0-8,0-.41,0-.56.11-.55.54,0,1.24,0,2.49,0,3.73v.53l-.13,0c-.09-.15-.18-.29-.26-.44A9.22,9.22,0,0,0,62.56,17a13.15,13.15,0,0,0-5.79-.22,11.31,11.31,0,0,0-7.47,4.37A17,17,0,0,0,46.12,31c-.09,1.91,0,3.84.08,5.75a17,17,0,0,0,1.21,5.54,11.75,11.75,0,0,0,7.18,7.24c.48.17,1,.32,1.47.48h6.16a2.39,2.39,0,0,1,.37-.15,9,9,0,0,0,5.8-4.73,2.1,2.1,0,0,1,.22-.3l.11,0v.53c0,1.19,0,2.39,0,3.58,0,.44.08.62.58.61q4,0,8.07,0c.47,0,.61-.14.6-.6C78,47,78,45,78,43Zm-10-4.7c-.68,2.42-2.15,4.07-4.72,4.37-3.54.4-6.33-.89-7.16-5.1a25.39,25.39,0,0,1-.23-6.28,10.58,10.58,0,0,1,.82-3.77,5.39,5.39,0,0,1,5-3.27,5.91,5.91,0,0,1,4.27,1.19,6.21,6.21,0,0,1,2.18,4.19c.18,1.27.21,2.57.3,3.86A20.46,20.46,0,0,1,67.91,38.26Z" transform="translate(-20.71)"/><path d="M237.51,17.58a20.33,20.33,0,0,0-12.11-.19A13.15,13.15,0,0,0,215.8,27a25.37,25.37,0,0,0-.4,11,13.65,13.65,0,0,0,10.87,11.72c.3.07.6.16.9.25h8c.25-.08.5-.18.75-.24a13.51,13.51,0,0,0,8.94-6.13,16.14,16.14,0,0,0,2.3-7.49,27.39,27.39,0,0,0-.42-8.18C245.54,22.84,242.58,19.23,237.51,17.58Zm-.46,20.91a5.71,5.71,0,0,1-6,4.2,8.72,8.72,0,0,1-2-.28,5.69,5.69,0,0,1-4-4.69,26.41,26.41,0,0,1-.24-6.88,8.78,8.78,0,0,1,.76-3.27,5.5,5.5,0,0,1,5.13-3.37,6.92,6.92,0,0,1,3.3.53,5.88,5.88,0,0,1,3.31,4.65c.23,1.34.25,2.71.36,4.06A20.46,20.46,0,0,1,237.05,38.49Z" transform="translate(-20.71)"/><path d="M202.45,17.76a20.33,20.33,0,0,0-11.66-.63,13.3,13.3,0,0,0-10.61,10,24.52,24.52,0,0,0-.34,11.14c1.06,5.68,4.28,9.53,9.9,11.22.62.19,1.25.35,1.88.52h7.87c.28-.08.54-.17.82-.24a13.59,13.59,0,0,0,8.78-5.87,16.32,16.32,0,0,0,2.49-8.14,27.32,27.32,0,0,0-.51-8.07A13.31,13.31,0,0,0,202.45,17.76Zm-.72,19.5a6,6,0,0,1-2.62,4.48,6.27,6.27,0,0,1-9.72-4.22,37.33,37.33,0,0,1-.34-4.11,18.68,18.68,0,0,1,.59-5.1,5.6,5.6,0,0,1,5.64-4.1,9.07,9.07,0,0,1,2.38.28,5.57,5.57,0,0,1,4,4.59,12.58,12.58,0,0,1,.31,2.8A48.29,48.29,0,0,1,201.73,37.26Z" transform="translate(-20.71)"/><path d="M139.65,31.62a22.64,22.64,0,0,0-.7-5.49c-1.28-4.62-4.16-7.7-8.85-8.89a21.17,21.17,0,0,0-10.72.13,12.86,12.86,0,0,0-6.85,4.21,14.1,14.1,0,0,0-3.17,8.59,42.88,42.88,0,0,0,.17,8,15,15,0,0,0,1.94,5.74,12.76,12.76,0,0,0,8,5.63l1.69.45h10.51c.35-.08.71-.17,1.07-.24a26.33,26.33,0,0,0,5.51-1.52c.37-.16.51-.33.38-.76-.45-1.6-.86-3.21-1.29-4.82l-.33-1.18a.6.6,0,0,0-.21,0,27.92,27.92,0,0,1-7.38,1.72,19.28,19.28,0,0,1-6-.16,5.08,5.08,0,0,1-4.19-3.82c-.13-.52-.19-1.06-.27-1.59-.11-.81-.1-.81.72-.81,6.43,0,12.86,0,19.29,0,.49,0,.62-.15.61-.63C139.64,34.68,139.68,33.15,139.65,31.62Zm-9.23-1.07c-1.82,0-3.64,0-5.45,0h-5.36c-.65,0-.69,0-.64-.69a9.85,9.85,0,0,1,.68-3.39,4.94,4.94,0,0,1,3.4-3,8,8,0,0,1,4-.06,5,5,0,0,1,3.8,4.51c.08.68.06,1.38.12,2.06C131,30.41,130.84,30.55,130.42,30.55Z" transform="translate(-20.71)"/><path d="M45.41.83c0-.32-.13-.47-.44-.49C43.9.28,42.82.21,41.75.13L40,0h-.51l-1.6.14A12.21,12.21,0,0,0,31,2.45,9.3,9.3,0,0,0,27.81,8a23.64,23.64,0,0,0-.4,5.31c0,1.18,0,2.36,0,3.53,0,.29,0,.5-.4.5l-6.3,0v8c.2,0,.4,0,.6,0h5.3c.8,0,.8,0,.8.78V48.76c0,.89-.08.8.82.8h7.68c1.14,0,1.14,0,1.14-1.14V25.9c0-.69,0-.69.7-.69,2,0,4.11,0,6.16,0,.45,0,.56-.16.6-.58.21-2.22.45-4.44.69-6.66.06-.61,0-.67-.58-.67-2.34,0-4.68,0-7,0-.42,0-.57-.14-.56-.56,0-1.91,0-3.83.09-5.74a3,3,0,0,1,2.4-3,6.06,6.06,0,0,1,1.2-.15h4.19c.34,0,.48-.09.48-.45Q45.4,4.11,45.41.83Z" transform="translate(-20.71)"/><path d="M105.84,41.78c0-.14-.1-.27-.16-.44l-.41.15a15.15,15.15,0,0,1-7.58,1.19A6.21,6.21,0,0,1,92,38a17.61,17.61,0,0,1,0-9.17,6,6,0,0,1,5-4.48,14.12,14.12,0,0,1,7.42.75c.41.14.8.31,1.19.46.06-.09.11-.12.12-.17q1-3.17,2-6.34a.52.52,0,0,0-.19-.43,12.1,12.1,0,0,0-1.35-.67,19.81,19.81,0,0,0-6-1.23,24.29,24.29,0,0,0-7.7.64,13,13,0,0,0-8.33,5.84,15.69,15.69,0,0,0-2.24,7.55,30.85,30.85,0,0,0,.37,8.14c1.18,5.53,4.42,9.12,9.91,10.62l2,.53h8.59a2.67,2.67,0,0,1,.36-.14,14.88,14.88,0,0,0,4.33-1.47.5.5,0,0,0,.29-.71C107.07,45.72,106.46,43.75,105.84,41.78Z" transform="translate(-20.71)"/></svg>