<svg id="Слой_1" data-name="Слой 1" xmlns="http://www.w3.org/2000/svg" viewBox="0 0 221.01 50"><title>lenta</title><path d="M14.49,34.59c7.44,16.19,22.65,15,22.65,15C31.34,34.26,14.49,34.59,14.49,34.59Z" transform="translate(-14.49)"/><path d="M37.14,49.6l.15.07c14.1-.55,17.12-11,17.12-11S43.11,38,37.14,49.6Z" transform="translate(-14.49)"/><path d="M37.51,0A18.39,18.39,0,0,0,18.9,18.62a18.63,18.63,0,0,0,37.26,0A18.43,18.43,0,0,0,37.51,0Zm.17,28.09A9.64,9.64,0,0,1,28,18.74a9.55,9.55,0,0,1,19.09-.32A9.65,9.65,0,0,1,37.68,28.09Z" transform="translate(-14.49)"/><path d="M235.5,42.43c-.63.13-1.07.27-1.52.32-2,.21-2.91-.59-3-2.58,0-.37,0-.75,0-1.13V18.6H223v2.74a3.2,3.2,0,0,1-.55-.31c-3.81-4-11.43-4.59-16.41-1.29-6.13,4.07-8.29,10-7.26,17.07a15,15,0,0,0,17.69,12.82,11.76,11.76,0,0,0,7-4.19,5.8,5.8,0,0,0,3.84,4,11.93,11.93,0,0,0,7.4-.23c.3-.1.75-.44.76-.68C235.53,46.52,235.5,44.5,235.5,42.43Zm-20.61-.16c-4.95,0-8.31-3.5-8.28-8.6a8.36,8.36,0,1,1,16.71.1A8.14,8.14,0,0,1,214.89,42.27Z" transform="translate(-14.49)"/><path d="M126,18.91a20,20,0,0,0-11.61-.77c-5.85,1.32-10.18,4.58-11.79,10.55-1.66,6.18-.89,12,4,16.69A17.07,17.07,0,0,0,118.32,50c4.53.16,8.74-.82,12.2-4,.32-.3.61-.64.95-1l-5-4.89,0,0-.61.44A11.74,11.74,0,0,1,114.89,42a7.13,7.13,0,0,1-4.8-5.9c1.42.31,2.6.62,3.79.81,4.46.72,8.85.65,13-1.41A9.09,9.09,0,0,0,131.79,30C133.3,25.34,131,20.78,126,18.91ZM121.43,31c-2.51,1.14-5.14.95-7.77.56-1.1-.16-2.19-.46-3.38-.73a6.68,6.68,0,0,1,2.91-4.48A9.48,9.48,0,0,1,121,25.24a3,3,0,0,1,.41,5.77Z" transform="translate(-14.49)"/><path d="M158.27,29.59H144.72v-11h-7.9V49h8V37.34h13.59V49h7.92V18.65h-8Z" transform="translate(-14.49)"/><path d="M71.83,27.65A110.56,110.56,0,0,1,71,38.88c-.51,3.39-1.64,4-5,3.71-.06,0-.13.08-.29.18,0,1.6.12,3.28,0,4.94-.13,1.42.59,1.72,1.72,1.84,5.43.61,9.3-1.94,10.86-7.16a42.56,42.56,0,0,0,1.39-11.18c0-1.65.12-3.3.19-4.93h9.62V49H97.3V18.64H71.85C71.85,21.72,72,24.69,71.83,27.65Z" transform="translate(-14.49)"/><path d="M170,26.21h9.75V49.09c2.38,0,4.59-.05,6.8,0,1,0,1.26-.34,1.25-1.3,0-6.7,0-13.39,0-20.09V26.14h9.53V18.63H170Z" transform="translate(-14.49)"/></svg>