<svg id="Слой_1" data-name="Слой 1" xmlns="http://www.w3.org/2000/svg" viewBox="0 0 276.63 50"><title>perekrestok</title><path d="M87.7,24.52h0c0-3.54,0-7.07,0-10.61,0-1.43-.48-2.48-2.08-2.49-5.15,0-10.3,0-15.44,0a1.83,1.83,0,0,0-2.07,1.91c0,6.33,0,12.65.1,19,0,2,1.35,3.27,3.18,3.95s2.43.33,2.43-1.7c0-5.34,0-10.67,0-16,0-1.36.47-1.93,1.83-1.87a36,36,0,0,0,4.28,0c1.66-.13,2.14.58,2.11,2.17C82,23,82,27.16,82,31.32c0,2.74,1.4,4.49,3.75,5.09,1.31.33,2,.09,1.94-1.47C87.64,31.47,87.7,28,87.7,24.52Z" transform="translate(-11.68)"/><path d="M183.54,16.66a39.57,39.57,0,0,0-5.34,1c-.14-.15-.36-.6-.7-.72-3.08-1.06-4.93.24-4.93,3.41V23c0,5.15,0,10.3,0,15.45,0,2.86,1.42,4.65,3.7,5.06,1.28.22,1.84-.11,1.78-1.51-.08-2,0-3.94,0-6.1.94.27,1.63.49,2.33.67,4.17,1.07,8-.49,9.53-4.11a14.39,14.39,0,0,0,0-11.76A6.21,6.21,0,0,0,183.54,16.66Zm.64,14.52a3.71,3.71,0,0,1-2.92,1.67,3.85,3.85,0,0,1-2.71-2c-.58-1.28-.48-2.87-.67-4.35a29.19,29.19,0,0,1,.62-4,2.88,2.88,0,0,1,3-2.08,2.84,2.84,0,0,1,2.88,1.95A11,11,0,0,1,184.18,31.18Z" transform="translate(-11.68)"/><path d="M117.82,17.45c-.38.14-1.08.36-1.16.23-1-1.54-2.47-.65-3.71-.77s-2,.63-2,1.93c0,6.76,0,13.53,0,20.29a4.31,4.31,0,0,0,3.63,4.33c1.25.26,1.87,0,1.8-1.43-.1-2,0-4,0-6.24l1.54.53c5.48,1.76,9.89-.69,11.08-6.31a18.36,18.36,0,0,0,.27-5.18C128.81,18,124.26,15.08,117.82,17.45Zm5.09,13A2.87,2.87,0,0,1,119.75,33a3.16,3.16,0,0,1-3.14-2.88,27.38,27.38,0,0,1-.23-3.52h.11a26.74,26.74,0,0,1,0-3,3.42,3.42,0,0,1,3-3.23A2.94,2.94,0,0,1,123,23.1,32,32,0,0,1,122.91,30.42Z" transform="translate(-11.68)"/><path d="M97.61,27.76h9.3c2.12,0,2.31-.21,2.1-2.37-.85-8.57-9-10.14-14-7.92-3.81,1.68-5.8,5.46-5.52,10.09a9.23,9.23,0,0,0,6.3,8.59c4.06,1.4,9,.29,11.48-2.65A23.67,23.67,0,0,0,109,30.45a32.81,32.81,0,0,0-3.66,0,4.1,4.1,0,0,0-2.26.8c-1.59,1.56-3.39,2.14-5.18,1.35-1.63-.71-2.48-2.41-2.29-4.87Zm1.64-7.39c2.33-.11,3.76,1.33,3.86,4.11H95.66C95.61,22,97,20.48,99.25,20.37Z" transform="translate(-11.68)"/><path d="M200.8,27.76c3.28,0,6.56,0,9.84,0,1,0,1.69-.26,1.62-1.45-.23-3.68-1.43-6.86-4.92-8.58a10,10,0,0,0-10.89.78c-3.57,2.65-4.36,6.46-3.57,10.64a8.52,8.52,0,0,0,6.71,7.14c3.94,1,7.67.47,10.65-2.58A15.22,15.22,0,0,0,212,31l-.33-.56c-1.85.5-3.93-1-5.61,1a4.17,4.17,0,0,1-5,1.19c-1.62-.73-2.48-2.52-2.2-4.85Zm-2-3.26c.08-2.7,1.6-4.21,4-4.14,2.22.07,3.57,1.66,3.41,4.14Z" transform="translate(-11.68)"/><path d="M257.17,16.62c-5.63,0-9.65,4.24-9.62,10.08s4.06,10,9.7,10c5.81,0,9.83-4.15,9.82-10.09S263,16.59,257.17,16.62Zm3.33,14A3.15,3.15,0,0,1,257.31,33c-1.61,0-3-.85-3.16-2.37a33.92,33.92,0,0,1,0-7.67,3,3,0,0,1,3.18-2.58,3.28,3.28,0,0,1,3.26,2.57,30.21,30.21,0,0,1,.71,3.65A39.67,39.67,0,0,1,260.5,30.59Z" transform="translate(-11.68)"/><path d="M282.18,26c1.45-3,2.85-5.87,4.41-9.06a28.35,28.35,0,0,1-3.1,0,3.07,3.07,0,0,0-3.62,2.4c-.37,1.11-.88,2.18-1.35,3.26-.77,1.77-2.12,2.22-4.1,1.77V19.45c0-2.57,0-2.57-2.65-2.56h-.37c-2.29,0-2.72.44-2.73,2.73q0,6.6,0,13.2a6.51,6.51,0,0,0,.16,1.65c.44,1.73,1.84,2.3,4.42,2,1.75-.21,1.08-1.53,1.12-2.44.09-2,0-4,0-6a3.22,3.22,0,0,1,3.74,1.5c.62,1,1.16,2,1.75,3.06,2.19,3.82,3.53,4.42,8.41,3.6Z" transform="translate(-11.68)"/><path d="M170.19,16.89a29.65,29.65,0,0,1-3.16,0c-1.94-.22-3,.66-3.59,2.44a23.73,23.73,0,0,1-1.36,3.25c-.91,1.82-1.85,2.19-4.08,1.6,0-1.92,0-3.9,0-5.87,0-1-.36-1.49-1.4-1.41-.43,0-.87,0-1.3,0-2.72,0-3,.3-3,3q0,6.31,0,12.64c0,3.36.91,4.14,4.25,4,1.15,0,1.51-.54,1.49-1.6,0-1.73-.06-3.47,0-5.2,0-.61.24-1.66.54-1.72a2.46,2.46,0,0,1,2.05.43,18.26,18.26,0,0,1,2.54,3.6c2.33,4.22,3.48,4.84,8.78,4.2l-6.17-10.26Z" transform="translate(-11.68)"/><path d="M46.86,17.72c-2.5,2.19-4.72,4.71-7.15,7.17,2.53,2.58,4.83,5.28,7.49,7.55a9.59,9.59,0,0,0,12.45-.18,9.86,9.86,0,0,0,1-13.57A9.74,9.74,0,0,0,46.86,17.72ZM57.23,28.87a5.53,5.53,0,0,1-7.58.32c-1.51-1.25-2.87-2.7-4.48-4.22,1.66-1.59,3-3,4.53-4.3a5.54,5.54,0,0,1,7.57.44A5.71,5.71,0,0,1,57.23,28.87Z" transform="translate(-11.68)"/><path d="M37.29,27.05c-3,3.21-5.81,5.76-8.07,8.72a8.94,8.94,0,0,0,1.64,12.06A10.22,10.22,0,0,0,44,47.38a9.12,9.12,0,0,0,.79-12.2C42.54,32.47,40,30,37.29,27.05Zm2.22,19a6.21,6.21,0,0,1-7.07-1.78,5.27,5.27,0,0,1-.23-6.39,49,49,0,0,1,4.29-4.6c.22-.22.84-.4,1-.29,2.15,2.16,5,3.78,5.57,7.17a6.08,6.08,0,0,1,0,.61A5.43,5.43,0,0,1,39.51,46Z" transform="translate(-11.68)"/><path d="M34.88,25.11c-2.53-2.58-4.83-5.28-7.5-7.55a9.59,9.59,0,0,0-12.45.18,9.86,9.86,0,0,0-1,13.57,9.74,9.74,0,0,0,13.81,1C30.23,30.09,32.44,27.57,34.88,25.11ZM17.32,28.89a5.71,5.71,0,0,1,0-7.76,5.53,5.53,0,0,1,7.58-.32c1.51,1.25,2.87,2.7,4.48,4.22-1.66,1.59-3,3-4.53,4.3A5.54,5.54,0,0,1,17.32,28.89Z" transform="translate(-11.68)"/><path d="M37.3,23c3-3.21,5.81-5.76,8.07-8.72A8.94,8.94,0,0,0,43.73,2.17a10.22,10.22,0,0,0-13.13.45,9.11,9.11,0,0,0-.79,12.2C32.05,17.53,34.57,20,37.3,23ZM35.08,4a6.21,6.21,0,0,1,7.07,1.78,5.25,5.25,0,0,1,.22,6.39,48.87,48.87,0,0,1-4.28,4.6c-.22.22-.85.4-1,.29-2.15-2.16-5-3.78-5.57-7.17a6.08,6.08,0,0,1,0-.61A5.43,5.43,0,0,1,35.08,4Z" transform="translate(-11.68)"/><path d="M223,20.46c1.06.17,2,1.12,2.95,1.8.46.33.77,1.15,1.21,1.2a37.44,37.44,0,0,0,4.3.06c-.71-3.37-2.29-5.49-5.23-6.44a9.55,9.55,0,0,0-10.68,3.19c-2.52,3.49-2.49,9.44.08,13,2.13,3,6.42,4.21,10.4,3,2.95-.89,5.15-3.51,5.06-6.22a19.23,19.23,0,0,0-3.31.05A3,3,0,0,0,226,31.23c-.76,1.14-1.62,1.89-3,1.74a2.8,2.8,0,0,1-2.72-2.42,47.36,47.36,0,0,1,0-7.9A2.44,2.44,0,0,1,223,20.46Z" transform="translate(-11.68)"/><path d="M249.2,17H230.32c.53,2.6,1.85,3.92,4.3,3.87,2,0,2.41.77,2.33,2.54-.12,2.73-.06,5.46,0,8.19a4.77,4.77,0,0,0,3.65,4.79c1.38.39,2.1.16,2.07-1.5-.07-3.91.06-7.82,0-11.72,0-1.68.46-2.31,2.21-2.3C247.45,20.9,248.85,19.55,249.2,17Z" transform="translate(-11.68)"/><path d="M146,32.27c-4.7-.29-9.43-.09-14.15-.09a4,4,0,0,0,4.08,4.11c4.59.27,9.21.07,13.94.07C149.59,34,148.5,32.42,146,32.27Z" transform="translate(-11.68)"/><path d="M144.28,24.43c-3.45-.08-6.91,0-10.37,0h-2.13c.33,2.81,1.8,4.3,4.78,4.52,3.26.24,6.54.14,9.81.18H150C149.43,26,147.58,24.52,144.28,24.43Z" transform="translate(-11.68)"/><path d="M136.18,21.35c4.5.22,9,.06,13.66.06-.19-2.61-1.93-4.21-4.91-4.41-2.1-.14-4.21-.06-6.31-.07h-6.81C132,19.55,133.49,21.22,136.18,21.35Z" transform="translate(-11.68)"/></svg>