<svg id="Слой_1" data-name="Слой 1" xmlns="http://www.w3.org/2000/svg" viewBox="0 0 172.58 50"><title>yandex</title><path d="M102.51,11.89H81.15c0,1.42,0,2.66,0,3.9-.09,6.3-.32,12.57-2.08,18.69-.49,1.7-1.12,3-3.36,2.53V50h6.66V43H99v7h6.65V37.12l-3.14-.28Zm-7.38,25H85.5c.78-6.39,1.56-12.73,2.36-19.3h7.27Z" transform="translate(-13.71 0)"/><path d="M41.68,1.75C41.68.55,41.35,0,40,0c-4.15.1-8.32,0-12.46.22-6.65.4-11.85,4.67-12.8,10.5-.88,5.44.36,10.33,4.54,14.21,1.21,1.12,2.49,2.17,3.93,3.41-3.11,4.62-6.2,9.24-9.54,14.22,2.64,0,4.83,0,7,0a1.7,1.7,0,0,0,1.15-.71c3.4-5,6.77-10.09,10.21-15.25-1.5-1-3-1.85-4.22-2.91a26,26,0,0,1-4.74-4.57C20,14.65,21.33,8.52,25.69,6.51c2.79-1.28,5.73-1.2,9-.89v37c1.93,0,3.59-.07,5.24,0,1.34.07,1.8-.42,1.8-1.78Q41.63,21.28,41.68,1.75Z" transform="translate(-13.71 0)"/><path d="M65.19,23.79H55.35V11.88H48.24V42.64h7.23V29.89h9.86v12.8h7.14V11.88H65.19Z" transform="translate(-13.71 0)"/><path d="M133.27,29.76c-.37-3.65-.52-6.89-1.07-10.07a9.83,9.83,0,0,0-4.92-7.1c-6.4-3.65-15-.89-17.88,5.87A23,23,0,0,0,109,35.3,10.64,10.64,0,0,0,115.18,42a19.52,19.52,0,0,0,16.3-.65c.45-.22,1.09-.67,1.12-1,.12-1.73.05-3.47.05-5.47-3.53,1.88-6.83,3-10.47,2.76-4.57-.26-7-2.91-6.78-7.8ZM120.7,16.84c3.26,0,5,2.75,4.7,7.54h-10C115.07,19.91,117.27,16.84,120.7,16.84Z" transform="translate(-13.71 0)"/><path d="M163,11.71c-2.25,0-4.05-.12-5.82,0a3.72,3.72,0,0,0-2.33,1.18c-2.29,3-4.43,6-6.62,9l-2.61,3.57-.48-.18V11.84h-7V42.66h7.1V27.6c.73.93,1.15,1.44,1.53,2,2.86,4,5.67,8,8.58,12a3.05,3.05,0,0,0,1.95,1.18c2.2.14,4.41,0,7.15,0L152.7,26Z" transform="translate(-13.71 0)"/><path d="M181.51,37.38c-5.23,1.06-8.59-1.09-9.48-6.34A24.47,24.47,0,0,1,172,23.4c.78-5,4.1-7.22,9.11-6.36,1.68.29,3.3.89,5.14,1.4,0-1.5-.09-2.94,0-4.36a1.75,1.75,0,0,0-1.65-2.15,57.36,57.36,0,0,0-6-.79,13,13,0,0,0-13.74,9.73,23.25,23.25,0,0,0,.25,13.91,11.14,11.14,0,0,0,7,7.48,18.44,18.44,0,0,0,10.63.7c3.34-.78,3.52-1,3.52-4.39V35.82A43.14,43.14,0,0,1,181.51,37.38Z" transform="translate(-13.71 0)"/></svg>