<?xml version="1.0" encoding="utf-8"?>
<!-- Generator: Adobe Illustrator 24.0.2, SVG Export Plug-In . SVG Version: 6.00 Build 0)  -->
<svg version="1.1" id="Слой_1" xmlns="http://www.w3.org/2000/svg" xmlns:xlink="http://www.w3.org/1999/xlink" x="0px" y="0px"
	 viewBox="0 0 1500 1500" style="enable-background:new 0 0 1500 1500;" xml:space="preserve">
<style type="text/css">
	.st0{fill:#0080FF;}
	.st1{fill:#FFFFFF;}
</style>
<path class="st0" d="M750,0L750,0C335.8,0,0,335.8,0,750v0c0,414.2,335.8,750,750,750h0c414.2,0,750-335.8,750-750v0
	C1500,335.8,1164.2,0,750,0z"/>
<path class="st1" d="M1437.6,450H600V15C489.2,37.5,387.2,84.4,300,150v300H62.4C31.8,520.1,11.6,595.7,3.7,675H300v675
	c87.2,65.5,189.2,112.4,300,134.9V675h896.3C1488.4,595.7,1468.2,520.1,1437.6,450z"/>
</svg>
