<svg id="Слой_1" data-name="Слой 1" xmlns="http://www.w3.org/2000/svg" viewBox="0 0 150 150"><title>emoji</title><path d="M100,25a75,75,0,0,0-75,75h0a75,75,0,0,0,150,0h0A75,75,0,0,0,100,25Zm65,75a65,65,0,0,1-130,0h0a65,65,0,0,1,130,0Z" transform="translate(-25 -25)"/><circle cx="52.5" cy="60.6" r="7.5"/><circle cx="97.5" cy="60.6" r="7.5"/><path d="M127.6,114.39a5,5,0,0,0-6.06,2.06,25,25,0,0,1-43.08,0,5,5,0,0,0-8.6,5.1,35,35,0,0,0,60.28,0A5,5,0,0,0,127.6,114.39Z" transform="translate(-25 -25)"/></svg>