<?xml version="1.0" encoding="utf-8"?>
<!-- Generator: Adobe Illustrator 26.0.1, SVG Export Plug-In . SVG Version: 6.00 Build 0)  -->
<svg version="1.1" id="Слой_1" xmlns="http://www.w3.org/2000/svg" xmlns:xlink="http://www.w3.org/1999/xlink" x="0px" y="0px"
	 viewBox="0 0 200 200" style="enable-background:new 0 0 200 200;" xml:space="preserve">
<g>
	<polygon points="66.7,117.6 96.2,126.3 86.8,107.9 	"/>
	<path d="M167.1,86.1l4.3-3.3l-5.6-4.1l3.9-18.9l-8.3-25.5l-45.3,17.1L100,51.2l-16.1,0.1L38.6,34.2l-8.3,25.5l3.9,18.9l-5.6,4.1
		l4.3,3.3l-2.5,2.1l3.6,3.4L32,93l7.6,8.7l-8.3,26.6l9.9,34.2l31.2-8.7l16.4,11.9h22.4l16.4-11.9l31.2,8.7l9.9-34.2l-8.3-26.6
		L168,93l-2-1.4l3.6-3.4L167.1,86.1z M40.6,60.3l4.2-12.9l40.3,29.7L70.7,89.6L48,96.1l-1.2-1.4l2.8-2l-4.2-4l3.5-2.9L45.2,83
		l0.1-0.1L40.6,60.3z M92,155.8l-1.6-1.2l1.3-1l8.3,0l8.3,0l1.3,1l-1.6,1.2H92z M93.2,146.6l0.5-4.6h12.6l0.5,4.6l-6.9,0L93.2,146.6
		z M151.9,150.2l-26.3-7.3l-11.2,8.2l-1.5-13.5l-4.7-2.6H91.9l-4.7,2.6l-1.5,13.5l-11.2-8.2l-26.3,7.3l-6.3-21.8l8-25.5l24.4-7
		l22.2-19.2L68.5,56.2l13.6,5.1l17.8-0.1l17.9,0.1l13.6-5.1l-27.8,20.5l22.2,19.2l24.4,7l8,25.5L151.9,150.2z M154.7,82.9
		L154.7,82.9l-3.5,2.8l3.5,2.9l-4.2,4l2.8,2l-1.2,1.4l-22.7-6.5l-14.4-12.5l40.3-29.7l4.2,12.9L154.7,82.9z"/>
	<polygon points="103.8,126.3 133.3,117.6 113.2,107.9 	"/>
</g>
</svg>
