<?xml version="1.0" encoding="utf-8"?>
<!-- Generator: Adobe Illustrator 24.0.2, SVG Export Plug-In . SVG Version: 6.00 Build 0)  -->
<svg version="1.1" id="Слой_1" xmlns="http://www.w3.org/2000/svg" xmlns:xlink="http://www.w3.org/1999/xlink" x="0px" y="0px"
	 viewBox="0 0 200 200" style="enable-background:new 0 0 200 200;" xml:space="preserve">
<path d="M59,49.2C59,49.2,59,49.1,59,49.2c1.2-1.2,3.1-0.3,3.1,1.3c-0.7,23,8,45.8,24.9,62.7c17,17,40,25.7,63.2,24.8
	c1.4-0.1,2.2,1.6,1.2,2.6c-0.1,0.1-0.2,0.2-0.4,0.4c-24.4,24.4-64.2,25.5-89.7,2.2C33.6,118.2,32.9,75.2,59,49.2 M51.9,42.1
	c-29.2,29.2-29.3,76.4-0.3,105.7c28.5,28.9,75.5,29.7,104.9,1.8c5.1-4.9,9.4-10.3,12.9-16c2.3-3.8-1.1-8.4-5.4-7.5
	c-24.4,5.6-51-1-70-20c-19-19-25.7-45.6-20-70c1-4.3-3.7-7.6-7.4-5.4C61.3,33.8,56.4,37.6,51.9,42.1L51.9,42.1z"/>
</svg>
