<?xml version="1.0" encoding="utf-8"?>
<!-- Generator: Adobe Illustrator 24.0.2, SVG Export Plug-In . SVG Version: 6.00 Build 0)  -->
<svg version="1.1" id="Слой_1" xmlns="http://www.w3.org/2000/svg" xmlns:xlink="http://www.w3.org/1999/xlink" x="0px" y="0px"
	 viewBox="0 0 200 200" style="enable-background:new 0 0 200 200;" xml:space="preserve">
<g>
	<path d="M100,60c-22.1,0-40,17.9-40,40c0,22.1,17.9,40,40,40c22.1,0,40-17.9,40-40C140,77.9,122.1,60,100,60z M100,130
		c-16.5,0-30-13.5-30-30c0-16.5,13.5-30,30-30s30,13.5,30,30C130,116.5,116.5,130,100,130z"/>
	<path d="M100,50c2.8,0,5-2.2,5-5V30c0-2.8-2.2-5-5-5c-2.8,0-5,2.2-5,5v15C95,47.8,97.2,50,100,50z"/>
	<path d="M57.6,64.6c2,2,5.1,2,7.1,0c2-2,2-5.1,0-7.1L54,47c-2-2-5.1-2-7.1,0l0,0c-2,2-2,5.1,0,7.1L57.6,64.6z"/>
	<path d="M50,100c0-2.8-2.2-5-5-5H30c-2.8,0-5,2.2-5,5s2.2,5,5,5h15C47.8,105,50,102.8,50,100z"/>
	<path d="M57.6,135.4L47,146c-2,2-2,5.1,0,7.1l0,0c2,2,5.1,2,7.1,0l10.6-10.6c2-2,2-5.1,0-7.1S59.5,133.4,57.6,135.4z"/>
	<path d="M100,150c-2.8,0-5,2.2-5,5v15c0,2.8,2.2,5,5,5c2.8,0,5-2.2,5-5v-15C105,152.2,102.8,150,100,150z"/>
	<path d="M142.4,135.4c-2-2-5.1-2-7.1,0s-2,5.1,0,7.1L146,153c2,2,5.1,2,7.1,0s2-5.1,0-7.1L142.4,135.4z"/>
	<path d="M170,95h-15c-2.8,0-5,2.2-5,5s2.2,5,5,5h15c2.8,0,5-2.2,5-5S172.8,95,170,95z"/>
	<path d="M142.4,64.6L153,54c2-2,2-5.1,0-7.1c-2-2-5.1-2-7.1,0l-10.6,10.6c-2,2-2,5.1,0,7.1C137.3,66.6,140.5,66.6,142.4,64.6z"/>
</g>
</svg>
