<svg x="0px" y="0px" viewBox="0 0 1000 1000" style="enable-background:new 0 0 1000 1000;" xml:space="preserve">
<path d="M500,0L500,0C223.9,0,0,223.9,0,500v0c0,276.1,223.9,500,500,500h0c276.1,0,500-223.9,500-500v0
	C1000,223.9,776.1,0,500,0z" fill="#0080FF" />
<path d="M954.6,291.5H535.3h-70.6h-47.4V6.8c-82,13.7-157.3,47.3-220.6,95.7v189H45.4C25,336,10.9,384,4.3,434.4h192.4
	v0v463.1c63.3,48.4,138.6,82,220.6,95.7V434.4h314.7c0,0,0,0,0,0h263.8C989.1,384,975,336,954.6,291.5z" fill="#FFFFFF"/>
</svg>
