<?xml version="1.0" encoding="utf-8"?>
<!-- Generator: Adobe Illustrator 24.0.2, SVG Export Plug-In . SVG Version: 6.00 Build 0)  -->
<svg version="1.1" id="Слой_1" xmlns="http://www.w3.org/2000/svg" xmlns:xlink="http://www.w3.org/1999/xlink" x="0px" y="0px"
	 viewBox="0 0 1000 1000" style="enable-background:new 0 0 1000 1000;" xml:space="preserve">
<style type="text/css">
	.st0{fill:#0080FF;}
	.st1{fill:#FFFFFF;}
</style>
<path class="st0" d="M804.5,0H195.5C87.5,0,0,87.5,0,195.5v609.1c0,108,87.5,195.5,195.5,195.5h609.1c108,0,195.5-87.5,195.5-195.5
	V195.5C1000,87.5,912.5,0,804.5,0z"/>
<polygon class="st1" points="1000,291.5 535.3,291.5 464.7,291.5 417.3,291.5 417.3,0 196.6,0 196.6,291.5 0,291.5 0,291.5 0,434.4 
	0,434.4 196.6,434.4 196.6,434.4 196.6,1000 417.3,1000 417.3,434.4 731.9,434.4 731.9,434.4 1000,434.4 1000,434.4 1000,291.5 "/>
</svg>
