<?xml version="1.0" encoding="utf-8"?>
<!-- Generator: Adobe Illustrator 24.0.2, SVG Export Plug-In . SVG Version: 6.00 Build 0)  -->
<svg version="1.1" id="Слой_1" xmlns="http://www.w3.org/2000/svg" xmlns:xlink="http://www.w3.org/1999/xlink" x="0px" y="0px"
	 viewBox="0 0 1000 1000" style="enable-background:new 0 0 1000 1000;" xml:space="preserve">
<style type="text/css">
	.st0{fill:#0080FF;}
	.st1{fill:#FFFFFF;}
</style>
<path class="st0" d="M500,0L500,0C223.9,0,0,223.9,0,500v0c0,276.1,223.9,500,500,500h0c276.1,0,500-223.9,500-500v0
	C1000,223.9,776.1,0,500,0z"/>
<path class="st1" d="M954.6,291.5H535.3h-70.6h-47.4V6.8c-82,13.7-157.3,47.3-220.6,95.7v189H45.4C25,336,10.9,384,4.3,434.4h192.4
	v0v463.1c63.3,48.4,138.6,82,220.6,95.7V434.4h314.7c0,0,0,0,0,0h263.8C989.1,384,975,336,954.6,291.5z"/>
</svg>
