<svg x="0px" y="0px" viewBox="0 0 1000 1000" style="enable-background:new 0 0 1000 1000;" xml:space="preserve" fill="#FFFFFF">
<g>
	<path d="M196.6,291.5V0h-1.2C87.5,0,0,87.5,0,195.5v96c0,0,0,0,0,0H196.6z"/>
	<path d="M804.5,0H417.3v291.5h47.4h70.6H1000c0,0,0,0,0,0v-96C1000,87.5,912.5,0,804.5,0z"/>
	<path d="M731.9,434.4C731.9,434.4,731.9,434.4,731.9,434.4l-314.7,0V1000H196.6V434.4v0H0c0,0,0,0,0,0v370.2
		c0,108,87.5,195.5,195.5,195.5h609.1c108,0,195.5-87.5,195.5-195.5V434.4c0,0,0,0,0,0H731.9z"/>
</g>
</svg>
