<?xml version="1.0" encoding="utf-8"?>
<!-- Generator: Adobe Illustrator 24.0.2, SVG Export Plug-In . SVG Version: 6.00 Build 0)  -->
<svg version="1.1" id="Слой_1" xmlns="http://www.w3.org/2000/svg" xmlns:xlink="http://www.w3.org/1999/xlink" x="0px" y="0px"
	 viewBox="0 0 200 200" style="enable-background:new 0 0 200 200;" xml:space="preserve">
<g>
	<path d="M100,75c-13.8,0-25,11.2-25,25s11.2,25,25,25s25-11.2,25-25S113.8,75,100,75z M100,115c-8.3,0-15-6.7-15-15s6.7-15,15-15
		s15,6.7,15,15S108.3,115,100,115z"/>
	<path d="M164.5,108.3l-4.7-2.7c0.2-1.9,0.3-3.7,0.3-5.6s-0.1-3.8-0.3-5.6l4.7-2.7c7.2-4.1,9.6-13.3,5.5-20.5l-10-17.3
		c-2.8-4.8-7.8-7.5-13-7.5c-2.5,0-5.1,0.6-7.5,2l-4.7,2.7c-3-2.2-6.3-4.1-9.7-5.6V40c0-8.3-6.7-15-15-15H90c-8.3,0-15,6.7-15,15v5.5
		c-3.4,1.6-6.7,3.5-9.7,5.6l-4.7-2.7c-2.4-1.4-4.9-2-7.5-2c-5.2,0-10.2,2.7-13,7.5L30,71.2c-4.1,7.2-1.7,16.4,5.5,20.5l4.7,2.7
		c-0.2,1.9-0.3,3.7-0.3,5.6s0.1,3.8,0.3,5.6l-4.7,2.7c-7.2,4.1-9.6,13.3-5.5,20.5l10,17.3c2.8,4.8,7.8,7.5,13,7.5
		c2.5,0,5.1-0.6,7.5-2l4.7-2.7c3,2.2,6.3,4.1,9.7,5.6v5.5c0,8.3,6.7,15,15,15h20c8.3,0,15-6.7,15-15v-5.5c3.4-1.6,6.7-3.5,9.7-5.6
		l4.7,2.7c2.4,1.4,4.9,2,7.5,2c5.2,0,10.2-2.7,13-7.5l10-17.3C174.1,121.7,171.6,112.5,164.5,108.3z M161.3,123.8l-9.9,17.2
		c-0.7,1.3-1.9,2.3-3.4,2.5c-1.3,0.2-2.5,0.1-3.5-0.6l-4.7-2.7l-2.8-1.6c-1.7-1-3.8-0.9-5.4,0.3l-2.6,1.9c-2.5,1.8-5.3,3.4-8.1,4.7
		l-2.9,1.3c-1.8,0.8-2.9,2.6-2.9,4.5v3.2v5.5c0,2.8-2.2,5-5,5H90c-2.8,0-5-2.2-5-5v-5.5v-3.2c0-2-1.1-3.7-2.9-4.5l-2.9-1.3
		c-2.8-1.3-5.6-2.9-8.1-4.7l-2.6-1.9c-1.6-1.1-3.7-1.2-5.4-0.3l-2.8,1.6l-4.7,2.7c-1.1,0.6-2.3,0.8-3.5,0.6
		c-1.4-0.3-2.6-1.3-3.4-2.5l-9.9-17.2c-0.9-1.6-0.7-3-0.5-3.8c0.2-0.7,0.8-2.1,2.3-3l4.7-2.7l2.8-1.6c1.7-1,2.7-2.8,2.5-4.8
		l-0.3-3.2c-0.2-1.6-0.2-3.2-0.2-4.7s0.1-3,0.2-4.7l0.3-3.2c0.2-1.9-0.8-3.8-2.5-4.8l-2.8-1.6L40.5,83c-2.4-1.4-3.2-4.4-1.8-6.8
		L48.6,59c0.7-1.3,1.9-2.3,3.4-2.5c1.3-0.2,2.5-0.1,3.5,0.6l4.7,2.7l2.8,1.6c1.7,1,3.8,0.9,5.4-0.3l2.6-1.9c2.5-1.8,5.3-3.4,8.1-4.7
		l2.9-1.3c1.8-0.8,2.9-2.6,2.9-4.5v-3.2V40c0-2.8,2.2-5,5-5h20c2.8,0,5,2.2,5,5v5.5v3.2c0,2,1.1,3.7,2.9,4.5l2.9,1.3
		c2.8,1.3,5.6,2.9,8.1,4.7l2.6,1.9c1.6,1.1,3.7,1.2,5.4,0.3l2.8-1.6l4.7-2.7c1.1-0.6,2.3-0.8,3.5-0.6c1.4,0.3,2.6,1.3,3.4,2.5
		l9.9,17.2c1.4,2.4,0.6,5.5-1.8,6.8l-4.7,2.7l-2.8,1.6c-1.7,1-2.7,2.8-2.5,4.8l0.3,3.2c0.2,1.6,0.2,3.2,0.2,4.7s-0.1,3-0.2,4.7
		l-0.3,3.2c-0.2,1.9,0.8,3.8,2.5,4.8l2.8,1.6l4.7,2.7C161.9,118.4,162.7,121.4,161.3,123.8z"/>
</g>
</svg>
