<?xml version="1.0" encoding="utf-8"?>
<!-- Generator: Adobe Illustrator 26.0.1, SVG Export Plug-In . SVG Version: 6.00 Build 0)  -->
<svg version="1.1" id="Слой_1" xmlns="http://www.w3.org/2000/svg" xmlns:xlink="http://www.w3.org/1999/xlink" x="0px" y="0px"
	 viewBox="0 0 230 100" style="enable-background:new 0 0 230 100;" xml:space="preserve">
<style type="text/css">
	.st0{fill:#BCD4E9;}
</style>
<path class="st0" d="M213.2,2.4c-5.7-1.3-14.8,5-14.8,5c-8.4,6.3-13.8,16.2-13.8,27.5c0,1.7,0.1,3.3,0.4,5.1
	c-1.7-0.4-3.5-0.6-5.3-0.6c-7.2,0-13.6,3.5-17.7,8.8c-2.8-0.9-5.9-1.4-9.1-1.4c-11.7,0-22,6.7-27.2,16.4c-2.6,0.4-5.1,1.1-7.5,2.1
	c-5.1-3.6-11.1-5.7-17.8-5.7c-7.8,0-14.8,2.8-20.1,7.5c-0.2,0-0.4,0-0.6,0c-5.4,0-10.5,1.4-14.9,3.8c-2.7-0.7-5.6-1.2-8.5-1.2
	c-9.8,0-18.4,4.6-24,11.6c-2.1-0.5-4.3-0.7-6.7-0.7c-8,0-15.3,3.1-20.8,8c8.4,7,19.1,11.4,30.9,11.4h138H230V50V7.4
	C230,7.4,218.9,3.7,213.2,2.4z"/>
</svg>
