<?xml version="1.0" encoding="utf-8"?>
<!-- Generator: Adobe Illustrator 26.0.1, SVG Export Plug-In . SVG Version: 6.00 Build 0)  -->
<svg version="1.1" id="Слой_1" xmlns="http://www.w3.org/2000/svg" xmlns:xlink="http://www.w3.org/1999/xlink" x="0px" y="0px"
	 viewBox="0 0 230 100" style="enable-background:new 0 0 230 100;" xml:space="preserve">
<style type="text/css">
	.st0{fill:#F6FBF9;}
</style>
<path class="st0" d="M220.7,19.8c-0.5,0-1.1,0-1.6,0c-16.1,0-29,12.9-29,29c0,1.3,0.1,2.5,0.3,3.8c-9.2,4.1-16.1,12.9-17.1,23.3
	c-3.7-1.7-7.8-2.6-12-2.6c-9.1,0-17.1,4.2-22.4,10.7c-2.8-0.9-5.7-1.3-8.7-1.3c-5,0-9.9,1.3-14,3.6C110.9,80,103,76,94.2,76
	c-9.5,0-17.9,4.6-23.2,11.7c-4.3-2.6-9.5-4.2-15-4.2c-8.2,0-15.7,3.4-20.9,9c-4.6-3.2-10.3-5.1-16.3-5.1C11.6,87.4,5,90,0,94.2
	c7.1,3.7,15.2,5.8,23.7,5.8h155.2h51V49C229.9,38.1,226.5,28.1,220.7,19.8z"/>
</svg>
