<?xml version="1.0" encoding="utf-8"?>
<!-- Generator: Adobe Illustrator 26.0.1, SVG Export Plug-In . SVG Version: 6.00 Build 0)  -->
<svg version="1.1" id="Слой_2" xmlns="http://www.w3.org/2000/svg" xmlns:xlink="http://www.w3.org/1999/xlink" x="0px" y="0px"
	 viewBox="0 0 250 100" style="enable-background:new 0 0 250 100;" xml:space="preserve">
<style type="text/css">
	.st0{fill:#FDFBFB;}
</style>
<path class="st0" d="M57.8,13c-1.9,4.7-5.7,5.4-5.7,5.4s3.9,0.7,5.7,5.4c1.9-4.7,5.7-5.4,5.7-5.4S59.6,17.6,57.8,13z"/>
<path class="st0" d="M113.4,69.6c-1.4,3.4-4.2,4-4.2,4s2.8,0.5,4.2,4c1.4-3.4,4.2-4,4.2-4S114.8,73.1,113.4,69.6z"/>
<path class="st0" d="M132.1,56.1c-0.8,2.1-2.6,2.4-2.6,2.4s1.7,0.3,2.6,2.4c0.8-2.1,2.6-2.4,2.6-2.4S133,58.2,132.1,56.1z"/>
<path class="st0" d="M58.6,42.1c-1,2.5-3.1,2.9-3.1,2.9s2.1,0.4,3.1,2.9c1-2.5,3.1-2.9,3.1-2.9S59.7,44.7,58.6,42.1z"/>
<path class="st0" d="M32.3,29.4c-0.8,2.1-2.6,2.4-2.6,2.4s1.7,0.3,2.6,2.4c0.8-2.1,2.6-2.4,2.6-2.4S33.1,31.5,32.3,29.4z"/>
<path class="st0" d="M139.4,26.4c-2.3,5.7-7,6.6-7,6.6s4.7,0.9,7,6.6c2.3-5.7,7-6.6,7-6.6S141.6,32.1,139.4,26.4z"/>
<circle class="st0" cx="100.8" cy="50.6" r="1.3"/>
<circle class="st0" cx="109.7" cy="27.7" r="1.3"/>
<circle class="st0" cx="59" cy="84.4" r="1.3"/>
<circle class="st0" cx="33.9" cy="78" r="0.9"/>
<circle class="st0" cx="47.1" cy="63.1" r="0.7"/>
</svg>
