<svg id="Слой_1" data-name="Слой 1" xmlns="http://www.w3.org/2000/svg" viewBox="0 0 152.7 50"><title>cocacola</title><g id="g3"><path id="path5" d="M107.29,43.62c-5.68-3.66-13.39-4.31-25.83-.86C68.2,45.88,63.78,47.88,58,43.87c-2.23-2-3-5.14-2.44-9.71,1.39-7.45,5.13-14.61,11.78-22.56C71,7.47,74.47,3.92,79,2.49c3.48-.89,3.15,1.85,2.73,2.24A3.44,3.44,0,0,0,80,5.17a4.6,4.6,0,0,0-1.82,3.12c-.1,2.42,2.4,1.91,3.48.59,1.16-1.5,2.88-4.36,1.53-7A4,4,0,0,0,80.41,0c-4.16-.24-8,1.75-11.62,3.94a50.73,50.73,0,0,0-17.62,21.2c-2,5-3.89,12.1-1.12,17.9,2.14,4,6.59,6.16,11.89,5.71a92.87,92.87,0,0,0,11.24-2.32c3-.72,18.5-6.05,23.59,3.22a6.87,6.87,0,0,1,5.92-3.36A19.49,19.49,0,0,1,114.83,50c-1.22-1.83-4.66-4.53-7.54-6.38Z" transform="translate(-48.65 0)"/><path id="path7" d="M83,12.54c-2.9-1.9-8.72,1.73-13.38,8-4.26,5.59-6.1,12.08-4.1,15.08,3,3.54,8.51-1.6,10.87-4.35l.3-.33a34.23,34.23,0,0,0,4-5.76l1.15-1.9c.68-.13,1.5-.33,2.42-.59,0,0-3.53,6-3.17,8.88.11.9,0,4.17,3.22,5.16C88.63,37.4,92,34.1,95,31.17l.8-.77c-.08.3-.17.69-.17.69-1.25,4.33.43,5.23,1.48,5.57,3.17.92,7-3.69,7-3.69-.1,1.45-.39,2.66,1.14,3.62,1.45.52,2.91-.27,4-1,4-2.82,7.23-7.24,9.84-11.06h-1.67s-4.1,5.92-6.75,7.2c0,0-.48.25-.76.05s-.21-.9,0-1.33l10.23-17.75h-4.82l-.57.91s-.11-.18-.16-.25c-3-4.13-9.76,2.23-14.86,9.6a48.44,48.44,0,0,1-7.05,8.34s-3.83,3.51-5.47,1a4.88,4.88,0,0,1-.08-3.64A30.28,30.28,0,0,1,96.1,15.3c1.06-.82,2.21-1.06,2.77-.71a1.2,1.2,0,0,1,.29,1.66,2.69,2.69,0,0,0-2.14.83c-1.11,1.17-1.5,2.3-1.15,3.36,1.73,2.46,5.18-2.4,5-5.36a3.2,3.2,0,0,0-1.47-2.56,5.1,5.1,0,0,0-4.43,0,19.92,19.92,0,0,0-5.84,4.53c-1.94,2.14-5.26,4.51-6.3,4.25.34-.91,3.15-6.65.2-8.8ZM106.3,21c.94-1.3,3.67-4.78,4.33-5.37,2.24-2,3.14-1.1,3.22-.48-2.09,3.74-4.56,8-6.88,11.88l-.73,1.11A10.72,10.72,0,0,1,102.51,32a1.08,1.08,0,0,1-.9-.1,1,1,0,0,1-.41-.92c.1-1.2,1.32-4.88,5.1-10ZM80.05,23.28s0,.12-.06.16-2.1,3.43-2.1,3.43c-1.27,1.69-2.85,3.81-4.83,4.83-.58.2-1.39.32-1.81-.19-.87-1.05-.42-2.5,0-3.68l.13-.42a34.67,34.67,0,0,1,4.33-7.69.16.16,0,0,1,.09,0s0,0,0,0A7,7,0,0,0,80.11,23s0,0,0,0a.6.6,0,0,1-.08.23Zm2-4-.93,2.15c-.14.11-.35.06-.59,0l-.42-.07A3.72,3.72,0,0,1,77.51,19c-.42-2,1.3-3.59,2.06-4.17a2.31,2.31,0,0,1,2.51-.25,2.67,2.67,0,0,1,.56,1.76,9.51,9.51,0,0,1-.6,2.88Z" transform="translate(-48.65 0)"/><path id="path9" d="M143,25.72a2.84,2.84,0,0,0-2.74-1.58c-3.83.35-7.56,3.5-9.53,8a23,23,0,0,0-2,7.28,20.08,20.08,0,0,1,6.37-4.85,13.2,13.2,0,0,1,2.28-5.52c.72-1.08,2.17-2.81,3.79-2.35,1.42.48.92,4.4-1,8.2a26.2,26.2,0,0,1-5.68,7.52c-1.91,1.62-4.74,3.58-7.21,2.07-1.55-.92-2.35-2.85-2.18-5.34.74-7,4-13.06,8.55-19.91,4.74-6.35,10-12.87,17-16.35a4.72,4.72,0,0,1,3.91-.45s-6.6,3.63-9.75,10.35c-.8,1.71-1.92,4-.8,6.05a2.38,2.38,0,0,0,2.47,1.09c3.86-.9,6.35-4.5,8.39-7.8a18.16,18.16,0,0,0,2.23-7.75c0-.33,0-.78,0-1.12,1.85-1,5.63.76,5.63.76,2.95,1,9.24,5.8,11.37,6.72,1-1.2,2.73-3,3.69-3.93L176.45,6c-2.22-1.35-4.56-2.64-6.87-3.91A13.79,13.79,0,0,0,157.89,1l-1.63.58C154.64-.2,152,0,150.05.44c-7,2-13.51,6.91-20.49,15.42-5.13,6.66-8.31,12.42-10,18.1-1.31,3.83-1.71,9.46,1.48,12.8,2.71,2.83,6.31,2.22,8.85,1.2,5.5-2.71,10.45-8.55,12.91-15.27.6-2,1.26-4.82.23-7Zm12.65-21c-.72,8.35-7.22,13.26-8.82,13.65-1,.19-2.64-.24-1.16-3.74a23.32,23.32,0,0,1,9.92-10.79,2.06,2.06,0,0,1,.06.88Z" transform="translate(-48.65 0)"/><path id="path11" d="M194.2,5.73c-3.49,2-7.11,3.27-11.49,2.82-1.22,1.37-2.4,2.78-3.49,4.24,6.15,1.56,12.67-1.92,16.31-5.23A25.64,25.64,0,0,0,201.35,0a30.29,30.29,0,0,1-7.15,5.71Z" transform="translate(-48.65 0)"/><polygon id="polygon13" points="76.96 16.89 79.54 12.69 74.96 12.69 72.38 16.89 76.96 16.89"/><path id="path15" d="M182.69,44c-.5.33-1.19.07-.93-.7A40.69,40.69,0,0,1,185,37.37l7.14-12.66h-4.89c-.24.39-.73,1.26-.73,1.26a6.9,6.9,0,0,0-1.18-1.39,4.3,4.3,0,0,0-4.16.28C175.89,27.94,172.06,34,169,38.74c0,0-3.18,5.27-4.95,5.66-1.38.11-1.23-1.75-1.17-2.18a35.31,35.31,0,0,1,3-8.8A69.69,69.69,0,0,0,174,26.83c5.71-5.47,10.53-11.65,11.23-13a10.11,10.11,0,0,1-1.66.18c-4.4,6.14-13.39,15.05-16.12,16.38,1.21-2.91,9-16.78,15.66-23.42l1-1c1.62-1.58,3.29-3.2,4.6-3.47.14,0,.31,0,.47.33A6,6,0,0,1,188.29,6l-.73,1.51s1-.2,1.72-.42c.8-1.5,1.68-3.18,1.35-5.17A1.49,1.49,0,0,0,189.45.63c-2-.37-4.14,1.09-5.88,2.28l-.07,0C174.57,10,167,20,160.43,33.81a4.75,4.75,0,0,1-2.64.59,22.56,22.56,0,0,0,1.88-5.1,13.75,13.75,0,0,0,.14-1.69,3.58,3.58,0,0,0-1.36-3.12,4.74,4.74,0,0,0-3.88.14c-4.71,2-8.24,6.79-10.78,10.77a23.64,23.64,0,0,0-3.11,8.34c-.26,2.43.28,4,1.66,4.78s3.21,0,3.91-.39C151,45.61,154.36,40.57,157,36a14.78,14.78,0,0,0,2.63-.33h0L159,37.53c-1.67,4.88-2.44,8.21-.86,10.18,2.25,2.78,6-.1,9-3.9-.65,4.55,1.71,5.27,3.51,4.92,2.07-.56,4.37-2.77,5.44-3.9-.34,1.33-.25,3.7,1.63,3.94,1.29.24,2.25-.46,3.37-1.06,4-2.18,8.79-9.44,10-11.54h-1.63c-1.77,2.67-4,6.17-6.85,7.84Zm-35.93-.49a2.17,2.17,0,0,1-.34-1.24c0-2.74,2.89-7.64,5-10.31h0a8.06,8.06,0,0,0,4,3.65c-1.48,3.3-6.56,10.36-8.68,7.9Zm9.51-9.37a4.16,4.16,0,0,1-3.11-3,4.2,4.2,0,0,1,2.28-4.32,2.28,2.28,0,0,1,2.05-.37,2.07,2.07,0,0,1,.74,1.84,10.11,10.11,0,0,1-.12,1.37v.1a18.55,18.55,0,0,1-1.83,4.43Zm20,8.49-.47.42c-.67.6-1.36,1.24-2.19.92a.84.84,0,0,1-.44-.63,11,11,0,0,1,1.49-4.86l.19-.41c2.16-3.6,4.67-7.85,8.36-10.79a2,2,0,0,1,2-.53,1.06,1.06,0,0,1,.36.68,1.29,1.29,0,0,1-.12.38c-1,1.66-2,3.41-3,5.08a70.74,70.74,0,0,1-6.22,9.74Z" transform="translate(-48.65 0)"/></g></svg>