<svg id="Слой_1" data-name="Слой 1" xmlns="http://www.w3.org/2000/svg" viewBox="0 0 216.09 50"><title>rosbank</title><path d="M121.49,2.23l-9.58,1.25c-.27,0-.36.11-.36.39,0,2.44,0,4.88,0,7.31a.62.62,0,0,0,.23.44l7.69,5.11.17.13a17.93,17.93,0,0,0-2.25.31,9.23,9.23,0,0,0-6.63,6,17.51,17.51,0,0,0-.44,10.26A10.09,10.09,0,0,0,117,41a17.79,17.79,0,0,0,5.15,1,23.07,23.07,0,0,0,8.06-.72,10.33,10.33,0,0,0,7.66-7.93,18.91,18.91,0,0,0,.14-8.1,10.64,10.64,0,0,0-4.81-7.21c-3.58-2.33-7.09-4.76-10.63-7.14l-.47-.33,0-.09L138.6,9.08V0l-6.31.83Zm2.73,20.28c.72.08,1.56.13,2.38.29a3.85,3.85,0,0,1,3.26,3.12,14.64,14.64,0,0,1,0,6.25,3.93,3.93,0,0,1-3.41,3.28,13.08,13.08,0,0,1-4.87,0,4,4,0,0,1-3.34-3.31,14.57,14.57,0,0,1,0-5.92A4.06,4.06,0,0,1,122,22.71C122.71,22.61,123.41,22.58,124.22,22.51Z" transform="translate(-16.96)"/><path d="M39.69,17.31a12.08,12.08,0,0,0-4.33-1.18,12.94,12.94,0,0,0-9.79,3c-.27.21-.51.46-.84.77v-3.2H17V50h7.73V38.21c.45.39.84.77,1.27,1.08a13.18,13.18,0,0,0,11,2.34,9.08,9.08,0,0,0,7.07-6.15A16.81,16.81,0,0,0,45,30.61a21.59,21.59,0,0,0-.65-7.25A9.26,9.26,0,0,0,39.69,17.31Zm-3,14.59a4,4,0,0,1-3.57,3.42,13,13,0,0,1-4.49,0,4.09,4.09,0,0,1-3.68-3.77c-.13-.85-.17-1.72-.26-2.72.1-.87.16-1.88.35-2.86a4,4,0,0,1,3.37-3.33,12.32,12.32,0,0,1,4.53-.07c2.35.4,3.4,1.45,3.82,3.82A14.75,14.75,0,0,1,36.68,31.9Z" transform="translate(-16.96)"/><path d="M161.42,19.89a7.71,7.71,0,0,0-.54-.56,5.49,5.49,0,0,0-.52-.44,13.13,13.13,0,0,0-10.66-2.62,9.17,9.17,0,0,0-7.61,6.25,17.28,17.28,0,0,0-.94,5.08,21.71,21.71,0,0,0,.66,7,9,9,0,0,0,5.89,6.6A13,13,0,0,0,159.12,40c.82-.5,1.57-1.14,2.38-1.73v2.87h7.72V16.64h-7.8Zm-.37,12.34a3.75,3.75,0,0,1-3.11,3,12.55,12.55,0,0,1-5.07.05,4,4,0,0,1-3.41-3.5,15.39,15.39,0,0,1,0-5.66A4,4,0,0,1,153,22.61a12.61,12.61,0,0,1,4.82,0,4,4,0,0,1,3.4,3.64c.14.88.18,1.78.29,2.88C161.37,30.05,161.29,31.16,161.05,32.23Z" transform="translate(-16.96)"/><path d="M68.88,17.08a21.32,21.32,0,0,0-6.78-1,22.3,22.3,0,0,0-6.73.94,10,10,0,0,0-6.84,6.68A18,18,0,0,0,48.39,34a9.89,9.89,0,0,0,5.54,6.63A15.58,15.58,0,0,0,59.13,42a24,24,0,0,0,8.78-.55,10.33,10.33,0,0,0,7.87-7.84,18.48,18.48,0,0,0,.06-8.84A10.12,10.12,0,0,0,68.88,17.08ZM67.85,32a4,4,0,0,1-3.76,3.53,13.11,13.11,0,0,1-4.33,0,4.2,4.2,0,0,1-3.71-4.09c-.09-.76-.12-1.53-.2-2.54C56,28,56,27,56.23,26A3.85,3.85,0,0,1,59.5,22.8a12.51,12.51,0,0,1,5,0A3.92,3.92,0,0,1,67.81,26,14.42,14.42,0,0,1,67.85,32Z" transform="translate(-16.96)"/><path d="M192.06,25.68H181.68v-9h-7.8V41.14h7.81V32h10.39v9.13h7.78V16.68h-7.8Z" transform="translate(-16.96)"/><path d="M90.91,22.78a12.28,12.28,0,0,1,4.87,0,3.93,3.93,0,0,1,3.24,3c0,.1.08.2.12.31l8.07-.61c0-.07,0-.09,0-.12A10.23,10.23,0,0,0,101,17.44a18.35,18.35,0,0,0-6.51-1.32,23.34,23.34,0,0,0-7.3.72,10.25,10.25,0,0,0-7.7,7.73,19.28,19.28,0,0,0-.33,7.22,12.12,12.12,0,0,0,1.93,5.39,10.91,10.91,0,0,0,6.94,4.41,24.83,24.83,0,0,0,8.68.33,14,14,0,0,0,5.8-2,10.47,10.47,0,0,0,4.68-7.22l-7.88-.6c-.26,0-.29.14-.35.32a3.89,3.89,0,0,1-3.19,2.94,12.54,12.54,0,0,1-4.57.09,4.09,4.09,0,0,1-3.84-3.71,14.74,14.74,0,0,1,0-5.46A4,4,0,0,1,90.91,22.78Z" transform="translate(-16.96)"/><path d="M220.74,28.36l11.51-11.69-.38,0c-2.9,0-5.79,0-8.69,0a1,1,0,0,0-.78.33q-4.91,5-9.84,10c-.1.11-.21.2-.39.37V16.68h-7.62V41.15h7.65V30l.12,0a3.85,3.85,0,0,0,.26.34q5.07,5.31,10.14,10.61a.87.87,0,0,0,.7.31h9.16l.46,0Z" transform="translate(-16.96)"/></svg>