<?xml version="1.0" encoding="utf-8"?>
<!-- Generator: Adobe Illustrator 24.0.2, SVG Export Plug-In . SVG Version: 6.00 Build 0)  -->
<svg version="1.1" id="Слой_1" xmlns="http://www.w3.org/2000/svg" xmlns:xlink="http://www.w3.org/1999/xlink" x="0px" y="0px"
	 viewBox="0 0 200 200" style="enable-background:new 0 0 200 200;" xml:space="preserve">
<g>
	<path d="M166.1,99.6c0-0.1,0-0.2,0-0.4c0-0.1,0-0.2-0.1-0.4c0-0.1-0.1-0.2-0.1-0.3c0-0.1-0.1-0.3-0.1-0.4c0,0,0-0.1,0-0.1
		c0-0.1-0.1-0.1-0.1-0.2c-0.1-0.1-0.1-0.2-0.2-0.3c-0.1-0.1-0.1-0.2-0.2-0.3c-0.1-0.1-0.1-0.2-0.2-0.3c-0.1-0.1-0.2-0.2-0.3-0.3
		c-0.1-0.1-0.1-0.1-0.1-0.2l-14.1-14.1c-2.1-2.1-5.5-1.9-7.4,0.3c-1.7,2-1.4,5.1,0.5,6.9l5.3,5.3c0.1,0.1,0,0.2-0.1,0.2H99.1
		c-2.9,0-5.3,2.4-5.3,5.3c0,2.6,2.1,4.7,4.7,4.7h50.2c0.1,0,0.1,0.1,0.1,0.2l-5.3,5.3c-1.9,1.9-2.2,4.9-0.5,6.9
		c1.9,2.3,5.3,2.4,7.4,0.3l14.1-14.1c0.1-0.1,0.1-0.1,0.1-0.2c0.1-0.1,0.2-0.2,0.3-0.3c0.1-0.1,0.1-0.2,0.2-0.3
		c0.1-0.1,0.1-0.2,0.2-0.3c0.1-0.1,0.1-0.2,0.2-0.3c0-0.1,0.1-0.1,0.1-0.2c0,0,0-0.1,0-0.1c0-0.1,0.1-0.2,0.1-0.4
		c0-0.1,0.1-0.2,0.1-0.3c0-0.1,0-0.2,0.1-0.4c0-0.1,0-0.2,0-0.4c0-0.1,0-0.2,0-0.4S166.1,99.8,166.1,99.6z"/>
	<path d="M132.5,134.1L132.5,134.1c-1.3,0-2.6,0.5-3.5,1.4c-9.6,9.5-23,15.1-37.6,14.4c-25.7-1.3-46.4-22.2-47.5-47.8
		C42.7,73.6,65.6,50,93.9,50c13.7,0,26.1,5.5,35.1,14.5c0.9,0.9,2.2,1.4,3.5,1.4h0c4.5,0,6.7-5.4,3.5-8.6
		C125.2,46.6,110.3,40,93.9,40h0c-33.1,0-60,26.9-60,60v0c0,33.1,26.9,60,60,60h0c16.4,0,31.3-6.6,42.1-17.3
		C139.2,139.6,136.9,134.1,132.5,134.1z"/>
</g>
</svg>
