<svg id="Слой_1" data-name="Слой 1" xmlns="http://www.w3.org/2000/svg" viewBox="0 0 32 32">
<defs>
<style>.cls-1{fill:#0080ff;}.cls-2{fill:#fff;}</style>
</defs>
<title>logo_icon_circle_new</title>
<path class="cls-1" d="M16,0h0A16,16,0,0,0,0,16H0A16,16,0,0,0,16,32h0A16,16,0,0,0,32,16h0A16,16,0,0,0,16,0Z" transform="translate(0)"/>
<path class="cls-2" d="M30.67,9.6H12.8V.32A15.92,15.92,0,0,0,6.4,3.2V9.6H1.33A16.1,16.1,0,0,0,.08,14.4H6.4V28.8a15.92,15.92,0,0,0,6.4,2.88V14.4H31.92A16.1,16.1,0,0,0,30.67,9.6Z" transform="translate(0)"/>
</svg>