<svg x="0px" y="0px" viewBox="0 0 1000 1000" style="enable-background:new 0 0 1000 1000;" xml:space="preserve">
<path d="M804.5,0H195.5C87.5,0,0,87.5,0,195.5v609.1c0,108,87.5,195.5,195.5,195.5h609.1c108,0,195.5-87.5,195.5-195.5
	V195.5C1000,87.5,912.5,0,804.5,0z" fill="#0080FF" />
<polygon points="1000,291.5 535.3,291.5 464.7,291.5 417.3,291.5 417.3,0 196.6,0 196.6,291.5 0,291.5 0,291.5 0,434.4 
	0,434.4 196.6,434.4 196.6,434.4 196.6,1000 417.3,1000 417.3,434.4 731.9,434.4 731.9,434.4 1000,434.4 1000,434.4 1000,291.5 "
	fill="#FFFFFF" />
</svg>
