{
  "accessors": [
    {
      "bufferView": 1,
      "componentType": 5126,
      "count": 86,
      "max": [
        3.577531099319458,
        4.051558971405029,
        5.7144341468811035
      ],
      "min": [
        -4.2198591232299805,
        -11.176600456237793,
        -8.734745025634766
      ],
      "type": "VEC3"
    },
    {
      "bufferView": 1,
      "byteOffset": 1032,
      "componentType": 5126,
      "count": 86,
      "max": [
        0.9947094917297363,
        0.9293221831321716,
        0.9583740830421448
      ],
      "min": [
        -0.9947094917297363,
        -0.9961589574813843,
        -0.9661644101142883
      ],
      "type": "VEC3"
    },
    {
      "bufferView": 0,
      "componentType": 5125,
      "count": 504,
      "type": "SCALAR"
    }
  ],
  "asset": {
    "extras": {
      "author": "gooseman (https://sketchfab.com/gooseman)",
      "license": "CC-BY-4.0 (http://creativecommons.org/licenses/by/4.0/)",
      "source": "https://sketchfab.com/3d-models/low-poly-unicorn-head-f2037233e4de4843aa4ce31acd90836a",
      "title": "Low Poly Unicorn Head"
    },
    "generator": "Sketchfab-12.67.0",
    "version": "2.0"
  },
  "bufferViews": [
    {
      "buffer": 0,
      "byteLength": 2016,
      "name": "floatBufferViews",
      "target": 34963
    },
    {
      "buffer": 0,
      "byteLength": 2064,
      "byteOffset": 2016,
      "byteStride": 12,
      "name": "floatBufferViews",
      "target": 34962
    }
  ],
  "buffers": [
    {
      "byteLength": 4080,
      "uri": "scene.bin"
    }
  ],
  "materials": [
    {
      "doubleSided": true,
      "name": "Material.001",
      "pbrMetallicRoughness": {
        "baseColorFactor": [
          0.64,
          0.64,
          0.64,
          1.0
        ],
        "metallicFactor": 0.0,
        "roughnessFactor": 0.0
      }
    }
  ],
  "meshes": [
    {
      "name": "Object_0",
      "primitives": [
        {
          "attributes": {
            "NORMAL": 1,
            "POSITION": 0
          },
          "indices": 2,
          "material": 0,
          "mode": 4
        }
      ]
    }
  ],
  "nodes": [
    {
      "children": [
        1
      ],
      "matrix": [
        1.0,
        0.0,
        0.0,
        0.0,
        0.0,
        2.220446049250313e-16,
        -1.0,
        0.0,
        0.0,
        1.0,
        2.220446049250313e-16,
        0.0,
        0.0,
        0.0,
        0.0,
        1.0
      ],
      "name": "Sketchfab_model"
    },
    {
      "children": [
        2
      ],
      "name": "fixed material.obj.cleaner.gles"
    },
    {
      "mesh": 0,
      "name": "Object_2"
    }
  ],
  "scene": 0,
  "scenes": [
    {
      "name": "Sketchfab_Scene",
      "nodes": [
        0
      ]
    }
  ]
}
