<svg viewBox="0 0 1000.22 637.42" fill="#FFFFFF">
<path d="M1000.11,500h0a34.47,34.47,0,0,1-34.47,34.47H34.58A34.47,34.47,0,0,1,.11,500h0a34.47,34.47,0,0,1,34.47-34.47H965.64A34.47,34.47,0,0,1,1000.11,500Z" transform="translate(0.11 -181.29)"/>
<path d="M999.89,215.76h0a34.47,34.47,0,0,1-34.47,34.47H34.36A34.47,34.47,0,0,1-.11,215.76h0a34.47,34.47,0,0,1,34.47-34.47H965.42A34.47,34.47,0,0,1,999.89,215.76Z" transform="translate(0.11 -181.29)"/>
<path d="M999.89,784.24h0a34.47,34.47,0,0,1-34.47,34.47H34.36A34.47,34.47,0,0,1-.11,784.23h0a34.48,34.48,0,0,1,34.47-34.48H965.42A34.48,34.48,0,0,1,999.89,784.24Z" transform="translate(0.11 -181.29)"/>
</svg>